<svg id="Camada_1" data-name="Camada 1" xmlns="http://www.w3.org/2000/svg" viewBox="0 0 1128 1200"><defs><style>.cls-1{fill:#0e131f;}.cls-2,.cls-8,.cls-9{fill:none;}.cls-2,.cls-3,.cls-8{stroke:#0e131f;}.cls-2,.cls-9{stroke-linecap:round;}.cls-2,.cls-3,.cls-8,.cls-9{stroke-miterlimit:10;}.cls-2{stroke-width:29px;}.cls-3{fill:#59546c;}.cls-3,.cls-8{stroke-width:4px;}.cls-4{fill:#444354;}.cls-5{fill:#8b939c;}.cls-6{fill:#c54a69;}.cls-7{fill:#fff;}.cls-9{stroke:#fff;stroke-width:12px;}</style></defs><rect class="cls-1" x="364.8" y="936.61" width="31.29" height="101.1" rx="8" transform="translate(1367.61 606.71) rotate(90)"/><polyline class="cls-2" points="638.95 986.56 639.23 1013.64 639.23 1200"/><polyline class="cls-2" points="380.17 986.56 380.45 1013.64 380.45 1200"/><rect class="cls-1" x="624.78" y="936.61" width="31.29" height="101.1" rx="8" transform="translate(1627.59 346.73) rotate(90)"/><path class="cls-2" d="M829.4,272.9l27.08-.28s122.77-8.43,255.16-142"/><path class="cls-2" d="M190.28,273.22l-33.45.38S29.74,255.12,16.36,607.22"/><rect class="cls-1" x="174.03" y="220.86" width="31.29" height="101.1" rx="8"/><rect class="cls-1" x="814.35" y="220.86" width="31.29" height="101.1" rx="8"/><rect class="cls-3" x="190.28" width="639.12" height="985.76" rx="37.65"/><path class="cls-4" d="M829.4,637.77V940.44a45.45,45.45,0,0,1-45.32,45.32H235.59a45.45,45.45,0,0,1-45.31-45.32V640.25C460.6,862,718.35,721.11,829.4,637.77Z"/><rect class="cls-5" x="218.56" y="356.27" width="127.58" height="127.58" rx="12"/><rect class="cls-6" x="218.56" y="259.38" width="127.58" height="62.59" rx="12"/><rect class="cls-6" x="370.22" y="259.38" width="127.58" height="62.59" rx="12"/><rect class="cls-6" x="519.47" y="259.38" width="127.58" height="62.59" rx="12"/><rect class="cls-6" x="673.53" y="259.38" width="127.58" height="62.59" rx="12"/><rect class="cls-5" x="218.56" y="510.33" width="127.58" height="127.58" rx="12"/><rect class="cls-5" x="218.56" y="664.39" width="127.58" height="127.58" rx="12"/><rect class="cls-5" x="218.56" y="818.46" width="127.58" height="127.58" rx="12"/><rect class="cls-5" x="370.22" y="356.27" width="127.58" height="127.58" rx="12"/><rect class="cls-5" x="370.22" y="510.33" width="127.58" height="127.58" rx="12"/><rect class="cls-5" x="370.22" y="664.39" width="127.58" height="127.58" rx="12"/><rect class="cls-5" x="370.22" y="818.46" width="127.58" height="127.58" rx="12"/><rect class="cls-5" x="521.87" y="356.27" width="127.58" height="127.58" rx="12"/><rect class="cls-5" x="521.87" y="510.33" width="127.58" height="127.58" rx="12"/><rect class="cls-5" x="521.87" y="664.39" width="127.58" height="127.58" rx="12"/><rect class="cls-5" x="521.87" y="818.46" width="127.58" height="127.58" rx="12"/><rect class="cls-6" x="673.53" y="356.27" width="127.58" height="127.58" rx="12"/><rect class="cls-5" x="673.53" y="510.33" width="127.58" height="127.58" rx="12"/><rect class="cls-5" x="673.53" y="664.39" width="127.58" height="127.58" rx="12"/><rect class="cls-5" x="673.53" y="818.46" width="127.58" height="127.58" rx="12"/><rect class="cls-1" x="218.56" y="34.3" width="582.55" height="191.37" rx="12"/><path class="cls-1" d="M269.16,406.52H259v-20.7h34.73v67.6H269.16Z"/><path class="cls-7" d="M253.26,306l4.05-9.89a26.65,26.65,0,0,0,4.86,2.79,10.61,10.61,0,0,0,4,.88,3.68,3.68,0,0,0,2-.5,1.52,1.52,0,0,0,.75-1.34c0-1-1.25-1.72-3.74-2.24l-1.88-.41a11.07,11.07,0,0,1-6-3.42,9.11,9.11,0,0,1-2.1-6.13,11.72,11.72,0,0,1,4.07-9.25q4.08-3.57,10.68-3.57a22.79,22.79,0,0,1,6,.79,28,28,0,0,1,5.93,2.41L278,285.34a15.85,15.85,0,0,0-3.68-2.06,9.79,9.79,0,0,0-3.58-.71,3.88,3.88,0,0,0-2.05.44,1.39,1.39,0,0,0-.72,1.24q0,1.5,5.28,2.63l1.3.29a10.06,10.06,0,0,1,5.74,3.35,9.28,9.28,0,0,1,2.09,6.13,12.16,12.16,0,0,1-4.23,9.57q-4.23,3.7-11,3.71a25.26,25.26,0,0,1-6.95-1A31.83,31.83,0,0,1,253.26,306Z"/><path class="cls-7" d="M283.42,306l4.05-9.89a26.65,26.65,0,0,0,4.86,2.79,10.61,10.61,0,0,0,4,.88,3.68,3.68,0,0,0,2.05-.5,1.52,1.52,0,0,0,.75-1.34c0-1-1.25-1.72-3.74-2.24l-1.88-.41a11.11,11.11,0,0,1-6.05-3.42,9.11,9.11,0,0,1-2.1-6.13,11.72,11.72,0,0,1,4.07-9.25q4.08-3.57,10.68-3.57a22.79,22.79,0,0,1,6,.79A28,28,0,0,1,312,276.1l-3.85,9.24a15.65,15.65,0,0,0-3.68-2.06,9.79,9.79,0,0,0-3.58-.71,3.9,3.9,0,0,0-2,.44,1.39,1.39,0,0,0-.72,1.24q0,1.5,5.28,2.63l1.3.29a10.06,10.06,0,0,1,5.74,3.35,9.29,9.29,0,0,1,2.1,6.13,12.17,12.17,0,0,1-4.24,9.57q-4.23,3.7-11,3.71a25.26,25.26,0,0,1-6.95-1A32,32,0,0,1,283.42,306Z"/><path class="cls-7" d="M430.75,307.46l-1.54-14c-.1-1.07-.2-2.14-.29-3.21s-.18-2.14-.24-3.22c-.15,1-.35,2.09-.62,3.22s-.59,2.34-1,3.62l-4,13.56h-7.53l-4.05-13.56c-.4-1.28-.73-2.49-1-3.62s-.46-2.2-.61-3.22c-.08,1.1-.16,2.17-.25,3.23s-.18,2.13-.28,3.2l-1.54,14H395.38l6-35.25h13.07l2.51,8.71.36,1.23a53.74,53.74,0,0,1,2,9.08h.21q.3-2.24.87-4.77c.39-1.68.9-3.58,1.54-5.68l2.63-8.57h13l5.58,35.25Z"/><path class="cls-7" d="M443.46,304.45l4.05-9.87a26.75,26.75,0,0,0,4.85,2.78,10.61,10.61,0,0,0,4,.88,3.68,3.68,0,0,0,2.05-.5,1.51,1.51,0,0,0,.74-1.33c0-1-1.24-1.73-3.73-2.24l-1.88-.41a11.12,11.12,0,0,1-6-3.42,9.09,9.09,0,0,1-2.09-6.12,11.67,11.67,0,0,1,4.07-9.24q4.07-3.57,10.66-3.57a22.78,22.78,0,0,1,6,.8,27.69,27.69,0,0,1,5.93,2.41l-3.86,9.22a15.59,15.59,0,0,0-3.67-2.06,10,10,0,0,0-3.57-.71,4,4,0,0,0-2.05.44,1.39,1.39,0,0,0-.72,1.24c0,1,1.75,1.87,5.27,2.63l1.3.29a10.05,10.05,0,0,1,5.73,3.34,9.27,9.27,0,0,1,2.09,6.12,12.12,12.12,0,0,1-4.22,9.56q-4.23,3.71-11,3.71a25.24,25.24,0,0,1-6.94-1A31.76,31.76,0,0,1,443.46,304.45Z"/><path class="cls-7" d="M571,307.52l-1.52-13.83c-.1-1.06-.19-2.12-.29-3.18s-.17-2.12-.24-3.18c-.14,1-.34,2.06-.61,3.18s-.58,2.32-1,3.59l-4,13.42h-7.46l-4-13.42c-.39-1.27-.72-2.47-1-3.59s-.46-2.18-.6-3.18c-.08,1.08-.16,2.14-.25,3.19l-.27,3.17-1.53,13.83h-12.3l6-34.9h13l2.47,8.63.36,1.21a52.45,52.45,0,0,1,1.93,9h.22a47.13,47.13,0,0,1,.86-4.72q.57-2.5,1.52-5.62l2.6-8.49h12.92l5.53,34.9Z"/><path class="cls-7" d="M618.62,307.52l-1.52-13.83c-.1-1.06-.19-2.12-.29-3.18s-.17-2.12-.24-3.18c-.14,1-.34,2.06-.61,3.18s-.58,2.32-1,3.59l-4,13.42h-7.46l-4-13.42c-.4-1.27-.73-2.47-1-3.59s-.46-2.18-.6-3.18c-.08,1.08-.16,2.14-.25,3.19l-.27,3.17-1.53,13.83H583.6l6-34.9h13l2.47,8.63.36,1.21a52.45,52.45,0,0,1,1.93,9h.22a47.13,47.13,0,0,1,.86-4.72q.57-2.5,1.52-5.62l2.6-8.49h12.92l5.53,34.9Z"/><path class="cls-7" d="M705.16,303.29,696.26,280h9.08l2.47,8.44c.36,1.23.63,2.27.8,3.12a17.15,17.15,0,0,1,.34,2.39h.16c.11-.79.26-1.61.46-2.48s.45-1.82.75-2.84l2.61-8.63h8.9L713,303.29Z"/><path class="cls-7" d="M723,303.29V280h8.52v23.31Z"/><path class="cls-7" d="M734,301.3l2.68-6.53a17,17,0,0,0,3.2,1.84,6.9,6.9,0,0,0,2.64.58,2.5,2.5,0,0,0,1.35-.32,1,1,0,0,0,.5-.89c0-.64-.83-1.14-2.47-1.48l-1.24-.27a7.31,7.31,0,0,1-4-2.26,6,6,0,0,1-1.39-4,7.76,7.76,0,0,1,2.69-6.12,10.34,10.34,0,0,1,7.06-2.35,15.09,15.09,0,0,1,3.95.52,18.27,18.27,0,0,1,3.91,1.59l-2.54,6.1a10.61,10.61,0,0,0-2.43-1.36,6.62,6.62,0,0,0-2.37-.47,2.55,2.55,0,0,0-1.35.3.91.91,0,0,0-.48.82c0,.65,1.16,1.23,3.49,1.73l.86.19a6.61,6.61,0,0,1,3.79,2.22,6.13,6.13,0,0,1,1.38,4,8,8,0,0,1-2.79,6.32,10.64,10.64,0,0,1-7.27,2.45,16.78,16.78,0,0,1-4.58-.65A21.06,21.06,0,0,1,734,301.3Z"/><path class="cls-7" d="M756,303.29V280h8.39v7.76h5.11V280h8.37v23.31h-8.37v-8.21h-5.11v8.21Z"/><path class="cls-1" d="M744.1,854.47v22h21.4v12.73H744.1v22.14H731.05V889.25h-21.4V876.52h21.4v-22Z"/><path class="cls-1" d="M742.45,567.74l9-7.28,5.4,9.14L746,573.94l10.89,4.19-5.4,9.23-9-7.41,1.8,11.84H733.41L735.22,580l-9.15,7.41-5.25-9.23,11.06-4.19-11.06-4.34,5.25-9.14,9.15,7.28-1.81-11.66h10.84Z"/><path class="cls-1" d="M613.24,865v12.68H557.39V865Zm0,22V899.6H557.39V886.92Z"/><path class="cls-1" d="M421,883a10.08,10.08,0,0,1,3.85-7.9,15.09,15.09,0,0,1,18.81,0,10,10,0,0,1,0,15.81,15.2,15.2,0,0,1-18.86,0A10.11,10.11,0,0,1,421,883Z"/><path class="cls-1" d="M249.21,882q0-16.46,7.85-25.89t21.52-9.44q13.76,0,21.54,9.37t7.78,26q0,16.6-7.78,26t-21.54,9.41q-13.62,0-21.49-9.51T249.21,882Zm23.87,0q0,7.37,1.33,10.8t4.17,3.42c1.89,0,3.28-1.13,4.15-3.38S284,887,284,882s-.43-8.54-1.3-10.81-2.26-3.41-4.15-3.41-3.33,1.12-4.2,3.36S273.08,877,273.08,882Z"/><path class="cls-1" d="M722.25,737.69V718.21h31.89v19.48Z"/><path class="cls-1" d="M275.8,607.48V593.91H246.61V576.06l25.64-36.83H299.2v36.83h7.37v17.85H299.2v13.57Zm-7.93-31.42h9.75v-9.23c0-1.8,0-3.3.11-4.48s.2-2.23.35-3.17a28.53,28.53,0,0,1-1.7,3.66c-.67,1.23-1.65,2.84-3,4.83Z"/><path class="cls-1" d="M404.59,579.33l6.48-40.65h42.29v18.23h-26.9l-.7,4.1c1.52-.19,3-.33,4.57-.42s3-.14,4.52-.14q11.19,0,17.57,6t6.39,16.36q0,12-8.3,18.72t-23.21,6.69a59.87,59.87,0,0,1-13.78-1.54A54.12,54.12,0,0,1,401,602l3-19a104.52,104.52,0,0,0,12.93,4.57,37.79,37.79,0,0,0,9.4,1.35q5,0,7.22-1.26a4.23,4.23,0,0,0,2.24-4q0-3.18-3.36-4.9t-9.6-1.72a61,61,0,0,0-7.5.53Q411.12,578.12,404.59,579.33Z"/><path class="cls-1" d="M591.47,559.77c.24,0,.54,0,.88-.07l1.49,0q10.17,0,15.85,5.62t5.69,15.64q0,12.67-8.25,20.72t-21.21,8q-13,0-21.24-7.76t-8.27-19.84a32.14,32.14,0,0,1,3.33-14q3.33-7,13.17-18.76l8-9.56h32Zm-5.65,29.09a5.18,5.18,0,0,0,4.11-1.82,8,8,0,0,0,0-9.53,5.19,5.19,0,0,0-4.13-1.79,5.25,5.25,0,0,0-4.17,1.79,8.1,8.1,0,0,0,0,9.56A5.28,5.28,0,0,0,585.82,588.86Z"/><path class="cls-1" d="M258.9,761.54l24.24-46.66H259.46V694h61.21L286.5,761.54Z"/><path class="cls-1" d="M418.32,726a16.15,16.15,0,0,1-8.32-5.25,13.67,13.67,0,0,1-2.87-8.78q0-8.44,7.46-13.92t19.25-5.48q11.81,0,19.24,5.48T460.51,712a13.79,13.79,0,0,1-2.84,8.81,16.14,16.14,0,0,1-8.26,5.22,20.54,20.54,0,0,1,9.93,6.22,15.07,15.07,0,0,1,3.45,9.91,18.13,18.13,0,0,1-7.85,15.34q-7.86,5.78-21.1,5.78t-21.09-5.81a18.1,18.1,0,0,1-7.9-15.31,15,15,0,0,1,3.47-9.91A20.72,20.72,0,0,1,418.32,726Zm15.52,20.42a4.62,4.62,0,0,0,3.73-1.75,8.15,8.15,0,0,0,.05-9.21,4.6,4.6,0,0,0-3.78-1.72,4.67,4.67,0,0,0-3.77,1.72,6.86,6.86,0,0,0-1.45,4.57,7,7,0,0,0,1.47,4.62A4.66,4.66,0,0,0,433.84,746.44Zm-.09-26.81a3.48,3.48,0,0,0,2.82-1.33,5.18,5.18,0,0,0,1.1-3.42,5.32,5.32,0,0,0-1.08-3.5,3.48,3.48,0,0,0-2.84-1.3,3.37,3.37,0,0,0-2.77,1.3,5.43,5.43,0,0,0-1.05,3.5A5.28,5.28,0,0,0,431,718.3,3.37,3.37,0,0,0,433.75,719.63Z"/><path class="cls-1" d="M580,742.67l-.93,0-1.54,0q-10,0-15.82-5.73t-5.81-15.62a29.4,29.4,0,0,1,1.17-8.35,26.45,26.45,0,0,1,3.49-7.41,27.29,27.29,0,0,1,10.49-9.32,31.85,31.85,0,0,1,14.55-3.22q13,0,21.21,7.67t8.25,19.65a31.88,31.88,0,0,1-3.33,13.92q-3.33,6.91-13.17,18.62l-8,9.56h-32Zm5.69-28.95a5.25,5.25,0,0,0-4.15,1.82A7,7,0,0,0,580,720.3a6.83,6.83,0,0,0,1.58,4.68,5.69,5.69,0,0,0,8.28,0,6.88,6.88,0,0,0,1.56-4.71,7,7,0,0,0-1.58-4.76A5.22,5.22,0,0,0,585.73,713.72Z"/><path class="cls-1" d="M582.28,409.93h1a7.84,7.84,0,0,0,4.73-1.19,4.1,4.1,0,0,0,1.61-3.52,4,4,0,0,0-1.07-2.89,3.69,3.69,0,0,0-2.76-1.12,3.18,3.18,0,0,0-2.7,1.24,5.84,5.84,0,0,0-.93,3.57H559.67q.2-11.19,7-17t19.74-5.79q11.57,0,18.58,5.3a16.5,16.5,0,0,1,7,13.82,13.33,13.33,0,0,1-9.74,13.75,15.35,15.35,0,0,1,9.16,5.43,16.79,16.79,0,0,1,3.14,10.52,19.26,19.26,0,0,1-7.64,16q-7.65,6-20.61,6-13.89,0-21.75-6.85t-7.85-18.93v-.18h23.45a9.22,9.22,0,0,0,1.44,5.19,4.37,4.37,0,0,0,3.73,1.75,5.18,5.18,0,0,0,3.9-1.51,5.52,5.52,0,0,0,1.46-4,5.41,5.41,0,0,0-1.72-4.33,7.31,7.31,0,0,0-4.94-1.5c-.47,0-.83,0-1.07,0l-.66,0Z"/><path class="cls-1" d="M405.06,454.62l30.45-36.27a23.39,23.39,0,0,0,3.07-4.36,7.39,7.39,0,0,0,.84-3.28,4.29,4.29,0,0,0-1.12-3.15,4.1,4.1,0,0,0-3.07-1.14,3.62,3.62,0,0,0-3.41,1.91,12.86,12.86,0,0,0-1.07,6H408v-.79q0-13.1,7.37-20.49t20.41-7.39q12.45,0,20,6.86t7.57,18a21.39,21.39,0,0,1-2.68,10.63,36.12,36.12,0,0,1-8.88,9.88l-5.73,4.8h17.2v18.79Z"/><rect class="cls-7" x="424.38" y="86.06" width="54.16" height="54.16" rx="12"/><rect class="cls-7" x="541.13" y="86.06" width="54.16" height="54.16" rx="12"/><rect class="cls-8" x="190.28" width="639.12" height="985.76" rx="37.65"/><rect class="cls-7" x="548.35" y="59.58" width="39.72" height="12.04" rx="5"/><rect class="cls-7" x="431.6" y="59.58" width="39.72" height="12.04" rx="5"/><path class="cls-7" d="M763.8,411.05a25,25,0,0,0-6.85-4.8,17.64,17.64,0,0,0-7.37-1.59,13,13,0,0,0-9.67,3.71,13.42,13.42,0,0,0-3.66,9.86q0,6,3.49,9.6a12.48,12.48,0,0,0,9.37,3.59,18.74,18.74,0,0,0,7.21-1.51,36.5,36.5,0,0,0,8-4.83l-.79,25.69a45.48,45.48,0,0,1-8,2.45,41,41,0,0,1-17.62-.31,33.43,33.43,0,0,1-8.35-3.17,36.36,36.36,0,0,1-13.68-13.19,35.76,35.76,0,0,1-4.64-18.32,37.41,37.41,0,0,1,2.64-14.17,34.31,34.31,0,0,1,19.44-19.14,39.65,39.65,0,0,1,14.47-2.59,38.71,38.71,0,0,1,16,3.45Z"/><path class="cls-9" d="M453.27,171.51s56.57,38.52,109.53,0"/><rect class="cls-1" x="364.8" y="936.61" width="31.29" height="101.1" rx="8" transform="translate(1367.61 606.71) rotate(90)"/><polyline class="cls-2" points="638.95 986.56 639.23 1013.64 639.23 1200"/><polyline class="cls-2" points="380.17 986.56 380.45 1013.64 380.45 1200"/><rect class="cls-1" x="624.78" y="936.61" width="31.29" height="101.1" rx="8" transform="translate(1627.59 346.73) rotate(90)"/><path class="cls-2" d="M829.4,272.9l27.08-.28s122.77-8.43,255.16-142"/><path class="cls-2" d="M190.28,273.22l-33.45.38S29.74,255.12,16.36,607.22"/><rect class="cls-1" x="174.03" y="220.86" width="31.29" height="101.1" rx="8"/><rect class="cls-1" x="814.35" y="220.86" width="31.29" height="101.1" rx="8"/><rect class="cls-3" x="190.28" width="639.12" height="985.76" rx="37.65"/><path class="cls-4" d="M829.4,637.77V940.44a45.45,45.45,0,0,1-45.32,45.32H235.59a45.45,45.45,0,0,1-45.31-45.32V640.25C460.6,862,718.35,721.11,829.4,637.77Z"/><rect class="cls-5" x="218.56" y="356.27" width="127.58" height="127.58" rx="12"/><rect class="cls-6" x="218.56" y="259.38" width="127.58" height="62.59" rx="12"/><rect class="cls-6" x="370.22" y="259.38" width="127.58" height="62.59" rx="12"/><rect class="cls-6" x="519.47" y="259.38" width="127.58" height="62.59" rx="12"/><rect class="cls-6" x="673.53" y="259.38" width="127.58" height="62.59" rx="12"/><rect class="cls-5" x="218.56" y="510.33" width="127.58" height="127.58" rx="12"/><rect class="cls-5" x="218.56" y="664.39" width="127.58" height="127.58" rx="12"/><rect class="cls-5" x="218.56" y="818.46" width="127.58" height="127.58" rx="12"/><rect class="cls-5" x="370.22" y="356.27" width="127.58" height="127.58" rx="12"/><rect class="cls-5" x="370.22" y="510.33" width="127.58" height="127.58" rx="12"/><rect class="cls-5" x="370.22" y="664.39" width="127.58" height="127.58" rx="12"/><rect class="cls-5" x="370.22" y="818.46" width="127.58" height="127.58" rx="12"/><rect class="cls-5" x="521.87" y="356.27" width="127.58" height="127.58" rx="12"/><rect class="cls-5" x="521.87" y="510.33" width="127.58" height="127.58" rx="12"/><rect class="cls-5" x="521.87" y="664.39" width="127.58" height="127.58" rx="12"/><rect class="cls-5" x="521.87" y="818.46" width="127.58" height="127.58" rx="12"/><rect class="cls-6" x="673.53" y="356.27" width="127.58" height="127.58" rx="12"/><rect class="cls-5" x="673.53" y="510.33" width="127.58" height="127.58" rx="12"/><rect class="cls-5" x="673.53" y="664.39" width="127.58" height="127.58" rx="12"/><rect class="cls-5" x="673.53" y="818.46" width="127.58" height="127.58" rx="12"/><rect class="cls-1" x="218.56" y="34.3" width="582.55" height="191.37" rx="12"/><path class="cls-1" d="M269.16,406.52H259v-20.7h34.73v67.6H269.16Z"/><path class="cls-7" d="M253.26,306l4.05-9.89a26.65,26.65,0,0,0,4.86,2.79,10.61,10.61,0,0,0,4,.88,3.68,3.68,0,0,0,2-.5,1.52,1.52,0,0,0,.75-1.34c0-1-1.25-1.72-3.74-2.24l-1.88-.41a11.07,11.07,0,0,1-6-3.42,9.11,9.11,0,0,1-2.1-6.13,11.72,11.72,0,0,1,4.07-9.25q4.08-3.57,10.68-3.57a22.79,22.79,0,0,1,6,.79,28,28,0,0,1,5.93,2.41L278,285.34a15.85,15.85,0,0,0-3.68-2.06,9.79,9.79,0,0,0-3.58-.71,3.88,3.88,0,0,0-2.05.44,1.39,1.39,0,0,0-.72,1.24q0,1.5,5.28,2.63l1.3.29a10.06,10.06,0,0,1,5.74,3.35,9.28,9.28,0,0,1,2.09,6.13,12.16,12.16,0,0,1-4.23,9.57q-4.23,3.7-11,3.71a25.26,25.26,0,0,1-6.95-1A31.83,31.83,0,0,1,253.26,306Z"/><path class="cls-7" d="M283.42,306l4.05-9.89a26.65,26.65,0,0,0,4.86,2.79,10.61,10.61,0,0,0,4,.88,3.68,3.68,0,0,0,2.05-.5,1.52,1.52,0,0,0,.75-1.34c0-1-1.25-1.72-3.74-2.24l-1.88-.41a11.11,11.11,0,0,1-6.05-3.42,9.11,9.11,0,0,1-2.1-6.13,11.72,11.72,0,0,1,4.07-9.25q4.08-3.57,10.68-3.57a22.79,22.79,0,0,1,6,.79A28,28,0,0,1,312,276.1l-3.85,9.24a15.65,15.65,0,0,0-3.68-2.06,9.79,9.79,0,0,0-3.58-.71,3.9,3.9,0,0,0-2,.44,1.39,1.39,0,0,0-.72,1.24q0,1.5,5.28,2.63l1.3.29a10.06,10.06,0,0,1,5.74,3.35,9.29,9.29,0,0,1,2.1,6.13,12.17,12.17,0,0,1-4.24,9.57q-4.23,3.7-11,3.71a25.26,25.26,0,0,1-6.95-1A32,32,0,0,1,283.42,306Z"/><path class="cls-7" d="M430.75,307.46l-1.54-14c-.1-1.07-.2-2.14-.29-3.21s-.18-2.14-.24-3.22c-.15,1-.35,2.09-.62,3.22s-.59,2.34-1,3.62l-4,13.56h-7.53l-4.05-13.56c-.4-1.28-.73-2.49-1-3.62s-.46-2.2-.61-3.22c-.08,1.1-.16,2.17-.25,3.23s-.18,2.13-.28,3.2l-1.54,14H395.38l6-35.25h13.07l2.51,8.71.36,1.23a53.74,53.74,0,0,1,2,9.08h.21q.3-2.24.87-4.77c.39-1.68.9-3.58,1.54-5.68l2.63-8.57h13l5.58,35.25Z"/><path class="cls-7" d="M443.46,304.45l4.05-9.87a26.75,26.75,0,0,0,4.85,2.78,10.61,10.61,0,0,0,4,.88,3.68,3.68,0,0,0,2.05-.5,1.51,1.51,0,0,0,.74-1.33c0-1-1.24-1.73-3.73-2.24l-1.88-.41a11.12,11.12,0,0,1-6-3.42,9.09,9.09,0,0,1-2.09-6.12,11.67,11.67,0,0,1,4.07-9.24q4.07-3.57,10.66-3.57a22.78,22.78,0,0,1,6,.8,27.69,27.69,0,0,1,5.93,2.41l-3.86,9.22a15.59,15.59,0,0,0-3.67-2.06,10,10,0,0,0-3.57-.71,4,4,0,0,0-2.05.44,1.39,1.39,0,0,0-.72,1.24c0,1,1.75,1.87,5.27,2.63l1.3.29a10.05,10.05,0,0,1,5.73,3.34,9.27,9.27,0,0,1,2.09,6.12,12.12,12.12,0,0,1-4.22,9.56q-4.23,3.71-11,3.71a25.24,25.24,0,0,1-6.94-1A31.76,31.76,0,0,1,443.46,304.45Z"/><path class="cls-7" d="M571,307.52l-1.52-13.83c-.1-1.06-.19-2.12-.29-3.18s-.17-2.12-.24-3.18c-.14,1-.34,2.06-.61,3.18s-.58,2.32-1,3.59l-4,13.42h-7.46l-4-13.42c-.39-1.27-.72-2.47-1-3.59s-.46-2.18-.6-3.18c-.08,1.08-.16,2.14-.25,3.19l-.27,3.17-1.53,13.83h-12.3l6-34.9h13l2.47,8.63.36,1.21a52.45,52.45,0,0,1,1.93,9h.22a47.13,47.13,0,0,1,.86-4.72q.57-2.5,1.52-5.62l2.6-8.49h12.92l5.53,34.9Z"/><path class="cls-7" d="M618.62,307.52l-1.52-13.83c-.1-1.06-.19-2.12-.29-3.18s-.17-2.12-.24-3.18c-.14,1-.34,2.06-.61,3.18s-.58,2.32-1,3.59l-4,13.42h-7.46l-4-13.42c-.4-1.27-.73-2.47-1-3.59s-.46-2.18-.6-3.18c-.08,1.08-.16,2.14-.25,3.19l-.27,3.17-1.53,13.83H583.6l6-34.9h13l2.47,8.63.36,1.21a52.45,52.45,0,0,1,1.93,9h.22a47.13,47.13,0,0,1,.86-4.72q.57-2.5,1.52-5.62l2.6-8.49h12.92l5.53,34.9Z"/><path class="cls-7" d="M705.16,303.29,696.26,280h9.08l2.47,8.44c.36,1.23.63,2.27.8,3.12a17.15,17.15,0,0,1,.34,2.39h.16c.11-.79.26-1.61.46-2.48s.45-1.82.75-2.84l2.61-8.63h8.9L713,303.29Z"/><path class="cls-7" d="M723,303.29V280h8.52v23.31Z"/><path class="cls-7" d="M734,301.3l2.68-6.53a17,17,0,0,0,3.2,1.84,6.9,6.9,0,0,0,2.64.58,2.5,2.5,0,0,0,1.35-.32,1,1,0,0,0,.5-.89c0-.64-.83-1.14-2.47-1.48l-1.24-.27a7.31,7.31,0,0,1-4-2.26,6,6,0,0,1-1.39-4,7.76,7.76,0,0,1,2.69-6.12,10.34,10.34,0,0,1,7.06-2.35,15.09,15.09,0,0,1,3.95.52,18.27,18.27,0,0,1,3.91,1.59l-2.54,6.1a10.61,10.61,0,0,0-2.43-1.36,6.62,6.62,0,0,0-2.37-.47,2.55,2.55,0,0,0-1.35.3.91.91,0,0,0-.48.82c0,.65,1.16,1.23,3.49,1.73l.86.19a6.61,6.61,0,0,1,3.79,2.22,6.13,6.13,0,0,1,1.38,4,8,8,0,0,1-2.79,6.32,10.64,10.64,0,0,1-7.27,2.45,16.78,16.78,0,0,1-4.58-.65A21.06,21.06,0,0,1,734,301.3Z"/><path class="cls-7" d="M756,303.29V280h8.39v7.76h5.11V280h8.37v23.31h-8.37v-8.21h-5.11v8.21Z"/><path class="cls-1" d="M744.1,854.47v22h21.4v12.73H744.1v22.14H731.05V889.25h-21.4V876.52h21.4v-22Z"/><path class="cls-1" d="M742.45,567.74l9-7.28,5.4,9.14L746,573.94l10.89,4.19-5.4,9.23-9-7.41,1.8,11.84H733.41L735.22,580l-9.15,7.41-5.25-9.23,11.06-4.19-11.06-4.34,5.25-9.14,9.15,7.28-1.81-11.66h10.84Z"/><path class="cls-1" d="M613.24,865v12.68H557.39V865Zm0,22V899.6H557.39V886.92Z"/><path class="cls-1" d="M421,883a10.08,10.08,0,0,1,3.85-7.9,15.09,15.09,0,0,1,18.81,0,10,10,0,0,1,0,15.81,15.2,15.2,0,0,1-18.86,0A10.11,10.11,0,0,1,421,883Z"/><path class="cls-1" d="M249.21,882q0-16.46,7.85-25.89t21.52-9.44q13.76,0,21.54,9.37t7.78,26q0,16.6-7.78,26t-21.54,9.41q-13.62,0-21.49-9.51T249.21,882Zm23.87,0q0,7.37,1.33,10.8t4.17,3.42c1.89,0,3.28-1.13,4.15-3.38S284,887,284,882s-.43-8.54-1.3-10.81-2.26-3.41-4.15-3.41-3.33,1.12-4.2,3.36S273.08,877,273.08,882Z"/><path class="cls-1" d="M722.25,737.69V718.21h31.89v19.48Z"/><path class="cls-1" d="M275.8,607.48V593.91H246.61V576.06l25.64-36.83H299.2v36.83h7.37v17.85H299.2v13.57Zm-7.93-31.42h9.75v-9.23c0-1.8,0-3.3.11-4.48s.2-2.23.35-3.17a28.53,28.53,0,0,1-1.7,3.66c-.67,1.23-1.65,2.84-3,4.83Z"/><path class="cls-1" d="M404.59,579.33l6.48-40.65h42.29v18.23h-26.9l-.7,4.1c1.52-.19,3-.33,4.57-.42s3-.14,4.52-.14q11.19,0,17.57,6t6.39,16.36q0,12-8.3,18.72t-23.21,6.69a59.87,59.87,0,0,1-13.78-1.54A54.12,54.12,0,0,1,401,602l3-19a104.52,104.52,0,0,0,12.93,4.57,37.79,37.79,0,0,0,9.4,1.35q5,0,7.22-1.26a4.23,4.23,0,0,0,2.24-4q0-3.18-3.36-4.9t-9.6-1.72a61,61,0,0,0-7.5.53Q411.12,578.12,404.59,579.33Z"/><path class="cls-1" d="M591.47,559.77c.24,0,.54,0,.88-.07l1.49,0q10.17,0,15.85,5.62t5.69,15.64q0,12.67-8.25,20.72t-21.21,8q-13,0-21.24-7.76t-8.27-19.84a32.14,32.14,0,0,1,3.33-14q3.33-7,13.17-18.76l8-9.56h32Zm-5.65,29.09a5.18,5.18,0,0,0,4.11-1.82,8,8,0,0,0,0-9.53,5.19,5.19,0,0,0-4.13-1.79,5.25,5.25,0,0,0-4.17,1.79,8.1,8.1,0,0,0,0,9.56A5.28,5.28,0,0,0,585.82,588.86Z"/><path class="cls-1" d="M258.9,761.54l24.24-46.66H259.46V694h61.21L286.5,761.54Z"/><path class="cls-1" d="M418.32,726a16.15,16.15,0,0,1-8.32-5.25,13.67,13.67,0,0,1-2.87-8.78q0-8.44,7.46-13.92t19.25-5.48q11.81,0,19.24,5.48T460.51,712a13.79,13.79,0,0,1-2.84,8.81,16.14,16.14,0,0,1-8.26,5.22,20.54,20.54,0,0,1,9.93,6.22,15.07,15.07,0,0,1,3.45,9.91,18.13,18.13,0,0,1-7.85,15.34q-7.86,5.78-21.1,5.78t-21.09-5.81a18.1,18.1,0,0,1-7.9-15.31,15,15,0,0,1,3.47-9.91A20.72,20.72,0,0,1,418.32,726Zm15.52,20.42a4.62,4.62,0,0,0,3.73-1.75,8.15,8.15,0,0,0,.05-9.21,4.6,4.6,0,0,0-3.78-1.72,4.67,4.67,0,0,0-3.77,1.72,6.86,6.86,0,0,0-1.45,4.57,7,7,0,0,0,1.47,4.62A4.66,4.66,0,0,0,433.84,746.44Zm-.09-26.81a3.48,3.48,0,0,0,2.82-1.33,5.18,5.18,0,0,0,1.1-3.42,5.32,5.32,0,0,0-1.08-3.5,3.48,3.48,0,0,0-2.84-1.3,3.37,3.37,0,0,0-2.77,1.3,5.43,5.43,0,0,0-1.05,3.5A5.28,5.28,0,0,0,431,718.3,3.37,3.37,0,0,0,433.75,719.63Z"/><path class="cls-1" d="M580,742.67l-.93,0-1.54,0q-10,0-15.82-5.73t-5.81-15.62a29.4,29.4,0,0,1,1.17-8.35,26.45,26.45,0,0,1,3.49-7.41,27.29,27.29,0,0,1,10.49-9.32,31.85,31.85,0,0,1,14.55-3.22q13,0,21.21,7.67t8.25,19.65a31.88,31.88,0,0,1-3.33,13.92q-3.33,6.91-13.17,18.62l-8,9.56h-32Zm5.69-28.95a5.25,5.25,0,0,0-4.15,1.82A7,7,0,0,0,580,720.3a6.83,6.83,0,0,0,1.58,4.68,5.69,5.69,0,0,0,8.28,0,6.88,6.88,0,0,0,1.56-4.71,7,7,0,0,0-1.58-4.76A5.22,5.22,0,0,0,585.73,713.72Z"/><path class="cls-1" d="M582.28,409.93h1a7.84,7.84,0,0,0,4.73-1.19,4.1,4.1,0,0,0,1.61-3.52,4,4,0,0,0-1.07-2.89,3.69,3.69,0,0,0-2.76-1.12,3.18,3.18,0,0,0-2.7,1.24,5.84,5.84,0,0,0-.93,3.57H559.67q.2-11.19,7-17t19.74-5.79q11.57,0,18.58,5.3a16.5,16.5,0,0,1,7,13.82,13.33,13.33,0,0,1-9.74,13.75,15.35,15.35,0,0,1,9.16,5.43,16.79,16.79,0,0,1,3.14,10.52,19.26,19.26,0,0,1-7.64,16q-7.65,6-20.61,6-13.89,0-21.75-6.85t-7.85-18.93v-.18h23.45a9.22,9.22,0,0,0,1.44,5.19,4.37,4.37,0,0,0,3.73,1.75,5.18,5.18,0,0,0,3.9-1.51,5.52,5.52,0,0,0,1.46-4,5.41,5.41,0,0,0-1.72-4.33,7.31,7.31,0,0,0-4.94-1.5c-.47,0-.83,0-1.07,0l-.66,0Z"/><path class="cls-1" d="M405.06,454.62l30.45-36.27a23.39,23.39,0,0,0,3.07-4.36,7.39,7.39,0,0,0,.84-3.28,4.29,4.29,0,0,0-1.12-3.15,4.1,4.1,0,0,0-3.07-1.14,3.62,3.62,0,0,0-3.41,1.91,12.86,12.86,0,0,0-1.07,6H408v-.79q0-13.1,7.37-20.49t20.41-7.39q12.45,0,20,6.86t7.57,18a21.39,21.39,0,0,1-2.68,10.63,36.12,36.12,0,0,1-8.88,9.88l-5.73,4.8h17.2v18.79Z"/><rect class="cls-7" x="424.38" y="86.06" width="54.16" height="54.16" rx="12"/><rect class="cls-7" x="541.13" y="86.06" width="54.16" height="54.16" rx="12"/><rect class="cls-8" x="190.28" width="639.12" height="985.76" rx="37.65"/><rect class="cls-7" x="548.35" y="59.58" width="39.72" height="12.04" rx="5"/><rect class="cls-7" x="431.6" y="59.58" width="39.72" height="12.04" rx="5"/><path class="cls-7" d="M763.8,411.05a25,25,0,0,0-6.85-4.8,17.64,17.64,0,0,0-7.37-1.59,13,13,0,0,0-9.67,3.71,13.42,13.42,0,0,0-3.66,9.86q0,6,3.49,9.6a12.48,12.48,0,0,0,9.37,3.59,18.74,18.74,0,0,0,7.21-1.51,36.5,36.5,0,0,0,8-4.83l-.79,25.69a45.48,45.48,0,0,1-8,2.45,41,41,0,0,1-17.62-.31,33.43,33.43,0,0,1-8.35-3.17,36.36,36.36,0,0,1-13.68-13.19,35.76,35.76,0,0,1-4.64-18.32,37.41,37.41,0,0,1,2.64-14.17,34.31,34.31,0,0,1,19.44-19.14,39.65,39.65,0,0,1,14.47-2.59,38.71,38.71,0,0,1,16,3.45Z"/><path class="cls-9" d="M453.27,171.51s56.57,38.52,109.53,0"/></svg>