<svg id="Camada_1" data-name="Camada 1" xmlns="http://www.w3.org/2000/svg" viewBox="0 0 1200 644"><defs><style>.cls-1{fill:#fff;}.cls-2{font-size:211.57px;font-family:NunitoSans-Black, Nunito Sans Black;font-weight:800;}.cls-2,.cls-3{fill:#c54a69;}</style></defs><rect class="cls-1" y="0.1" width="1200" height="643.8"/><text class="cls-2" transform="translate(73 198.02)">Qual meu</text><path class="cls-3" d="M120.62,604.34V281.54h84.24v322.8Z"/><path class="cls-3" d="M553.76,604.34H461.27l-55.86-103Q394.87,483.46,372,483.46H346.35V604.34H263.47V281.54H417.31q58.6,0,88.14,25.41T535,380.44q0,36.65-20.15,62t-56.78,34.11q27.93,6,44.42,36.18ZM444.1,411.58q12.12-8.7,12.13-28.39,0-20.15-12.13-29.08T404,345.19H345.43v75.09H404Q432,420.28,444.1,411.58Z"/><path class="cls-3" d="M828,604.34l-28.84-66.85H656.32l-28.85,66.85h-84.7l150.64-322.8h66.85l151.09,322.8Zm-144.69-130h88.83L727.75,370.83Z"/><path class="cls-3" d="M946.15,467.89q0-21.51,8-35.94t22.21-29.53Q986.89,391,991.93,383a33.26,33.26,0,0,0,5-18.09q0-22.42-29.3-22.43-16.95,0-38,7.78A214.34,214.34,0,0,0,888,371.28l-25.64-59.52q18.3-15.56,49.67-24.95a218.53,218.53,0,0,1,63-9.39q30.22,0,54,10.07t37.09,28.16q13.28,18.09,13.27,41.44a69,69,0,0,1-6.86,30.91,96.29,96.29,0,0,1-16.71,24.26q-9.86,10.31-25.42,23.58t-23.58,22.44q-8,9.17-10.3,19.23l-3.2,17.86H946.15Zm-17.4,136.45V521h84.7v83.33Z"/></svg>