<svg id="Camada_1" data-name="Camada 1" xmlns="http://www.w3.org/2000/svg" viewBox="0 0 1200 1200"><defs><style>.cls-1{fill:#0e131f;}.cls-10,.cls-2,.cls-8,.cls-9{fill:none;}.cls-2,.cls-3,.cls-8{stroke:#0e131f;}.cls-10,.cls-2,.cls-9{stroke-linecap:round;}.cls-10,.cls-2,.cls-3,.cls-8,.cls-9{stroke-miterlimit:10;}.cls-10,.cls-2{stroke-width:29px;}.cls-3{fill:#59546c;}.cls-3,.cls-8{stroke-width:4px;}.cls-4{fill:#444354;}.cls-5{fill:#8b939c;}.cls-6{fill:#c54a69;}.cls-7{fill:#fff;}.cls-9{stroke:#fff;stroke-width:12px;}.cls-10{stroke:#0a0e16;}</style></defs><rect class="cls-1" x="489.5" y="937.67" width="26" height="84" rx="8" transform="translate(1482.17 477.17) rotate(90)"/><polyline class="cls-2" points="717.27 979.17 717.5 1001.67 717.5 1156.5"/><polyline class="cls-2" points="502.27 979.17 502.5 1001.67 502.5 1156.5"/><rect class="cls-1" x="705.5" y="937.67" width="26" height="84" rx="8" transform="translate(1698.17 261.17) rotate(90)"/><rect class="cls-1" x="331" y="343" width="26" height="84" rx="8"/><rect class="cls-1" x="863" y="343" width="26" height="84" rx="8"/><rect class="cls-3" x="344.5" y="159.5" width="531" height="819" rx="37.65"/><path class="cls-4" d="M875.5,689.38V940.85a37.76,37.76,0,0,1-37.65,37.65H382.15a37.76,37.76,0,0,1-37.65-37.65V691.44C569.09,875.7,783.24,758.62,875.5,689.38Z"/><rect class="cls-5" x="368" y="455.5" width="106" height="106" rx="12"/><rect class="cls-6" x="368" y="375" width="106" height="52" rx="12"/><rect class="cls-6" x="494" y="375" width="106" height="52" rx="12"/><rect class="cls-6" x="618" y="375" width="106" height="52" rx="12"/><rect class="cls-6" x="746" y="375" width="106" height="52" rx="12"/><rect class="cls-5" x="368" y="583.5" width="106" height="106" rx="12"/><rect class="cls-5" x="368" y="711.5" width="106" height="106" rx="12"/><rect class="cls-5" x="368" y="839.5" width="106" height="106" rx="12"/><rect class="cls-5" x="494" y="455.5" width="106" height="106" rx="12"/><rect class="cls-5" x="494" y="583.5" width="106" height="106" rx="12"/><rect class="cls-5" x="494" y="711.5" width="106" height="106" rx="12"/><rect class="cls-5" x="494" y="839.5" width="106" height="106" rx="12"/><rect class="cls-5" x="620" y="455.5" width="106" height="106" rx="12"/><rect class="cls-5" x="620" y="583.5" width="106" height="106" rx="12"/><rect class="cls-5" x="620" y="711.5" width="106" height="106" rx="12"/><rect class="cls-5" x="620" y="839.5" width="106" height="106" rx="12"/><rect class="cls-6" x="746" y="455.5" width="106" height="106" rx="12"/><rect class="cls-5" x="746" y="583.5" width="106" height="106" rx="12"/><rect class="cls-5" x="746" y="711.5" width="106" height="106" rx="12"/><rect class="cls-5" x="746" y="839.5" width="106" height="106" rx="12"/><rect class="cls-1" x="368" y="188" width="484" height="159" rx="12"/><path class="cls-1" d="M410,497.25h-8.48v-17.2h28.85v56.16H410Z"/><path class="cls-7" d="M396.83,413.71l3.36-8.21a21.8,21.8,0,0,0,4,2.32,8.83,8.83,0,0,0,3.31.73,3.13,3.13,0,0,0,1.71-.41,1.3,1.3,0,0,0,.62-1.12c0-.81-1-1.43-3.11-1.86l-1.56-.34a9.24,9.24,0,0,1-5-2.84,7.59,7.59,0,0,1-1.74-5.09,9.75,9.75,0,0,1,3.38-7.69,13,13,0,0,1,8.88-3,19,19,0,0,1,5,.66,22.78,22.78,0,0,1,4.92,2l-3.2,7.67a12.88,12.88,0,0,0-3.06-1.71,8.11,8.11,0,0,0-3-.6,3.2,3.2,0,0,0-1.7.38,1.14,1.14,0,0,0-.6,1c0,.83,1.46,1.55,4.38,2.18l1.08.24a8.29,8.29,0,0,1,4.77,2.79A7.7,7.7,0,0,1,421,406a10.11,10.11,0,0,1-3.51,8,13.38,13.38,0,0,1-9.15,3.08,20.82,20.82,0,0,1-5.76-.82A25.85,25.85,0,0,1,396.83,413.71Z"/><path class="cls-7" d="M421.89,413.71l3.36-8.21a21.8,21.8,0,0,0,4,2.32,8.83,8.83,0,0,0,3.31.73,3.07,3.07,0,0,0,1.7-.41,1.28,1.28,0,0,0,.63-1.12c0-.81-1-1.43-3.11-1.86l-1.56-.34a9.24,9.24,0,0,1-5-2.84,7.59,7.59,0,0,1-1.74-5.09,9.75,9.75,0,0,1,3.38-7.69,13,13,0,0,1,8.88-3,18.88,18.88,0,0,1,5,.66,22.64,22.64,0,0,1,4.93,2l-3.2,7.67a13.07,13.07,0,0,0-3.06-1.71,8.11,8.11,0,0,0-3-.6,3.2,3.2,0,0,0-1.7.38,1.14,1.14,0,0,0-.61,1c0,.83,1.47,1.55,4.39,2.18l1.08.24a8.29,8.29,0,0,1,4.77,2.79,7.7,7.7,0,0,1,1.74,5.08,10.11,10.11,0,0,1-3.51,8,13.4,13.4,0,0,1-9.15,3.08,20.94,20.94,0,0,1-5.77-.82A26,26,0,0,1,421.89,413.71Z"/><path class="cls-7" d="M544.29,415,543,403.34l-.24-2.67c-.08-.88-.15-1.77-.2-2.67q-.18,1.26-.51,2.67c-.22.94-.49,1.95-.81,3L537.89,415h-6.26l-3.36-11.27c-.34-1.06-.61-2.07-.82-3s-.38-1.83-.5-2.67c-.07.91-.14,1.8-.21,2.68s-.15,1.77-.23,2.66L525.23,415H514.9l5-29.29h10.86l2.08,7.24q.09.35.3,1a44.94,44.94,0,0,1,1.62,7.54H535q.24-1.86.72-4c.32-1.4.74-3,1.28-4.72l2.18-7.12H550L554.61,415Z"/><path class="cls-7" d="M554.85,412.44l3.36-8.2a21.09,21.09,0,0,0,4,2.31,8.68,8.68,0,0,0,3.31.73,3,3,0,0,0,1.7-.41,1.25,1.25,0,0,0,.62-1.11c0-.81-1-1.43-3.1-1.86l-1.56-.34a9.25,9.25,0,0,1-5-2.84,7.55,7.55,0,0,1-1.74-5.08,9.73,9.73,0,0,1,3.38-7.68,13,13,0,0,1,8.86-3,18.88,18.88,0,0,1,5,.66,23.31,23.31,0,0,1,4.93,2l-3.2,7.66a13.45,13.45,0,0,0-3.06-1.71,8.3,8.3,0,0,0-3-.59,3.23,3.23,0,0,0-1.7.37,1.16,1.16,0,0,0-.6,1q0,1.24,4.38,2.18l1.08.24a8.38,8.38,0,0,1,4.77,2.78A7.71,7.71,0,0,1,579,404.7a10.11,10.11,0,0,1-3.51,7.95,13.39,13.39,0,0,1-9.14,3.08,21.2,21.2,0,0,1-5.76-.82A26,26,0,0,1,554.85,412.44Z"/><path class="cls-7" d="M660.78,415l-1.26-11.49c-.08-.88-.16-1.77-.24-2.64s-.15-1.76-.2-2.65c-.12.83-.29,1.72-.5,2.65s-.49,1.92-.81,3L654.45,415h-6.2l-3.33-11.15c-.33-1.06-.6-2.05-.81-3s-.38-1.82-.5-2.65c-.07.9-.14,1.78-.21,2.66s-.15,1.75-.23,2.63L641.91,415H631.69l4.95-29h10.75l2.06,7.17c.07.23.17.56.3,1a44.78,44.78,0,0,1,1.61,7.47h.17c.16-1.23.4-2.54.72-3.92s.74-3,1.26-4.68l2.16-7.05h10.74l4.6,29Z"/><path class="cls-7" d="M700.38,415l-1.27-11.49c-.08-.88-.15-1.77-.23-2.64s-.15-1.76-.2-2.65c-.12.83-.29,1.72-.51,2.65s-.48,1.92-.8,3L694,415h-6.2l-3.32-11.15c-.34-1.06-.61-2.05-.82-3s-.37-1.82-.49-2.65c-.07.9-.14,1.78-.21,2.66s-.15,1.75-.23,2.63L681.5,415H671.28l5-29H687l2.06,7.17c.07.23.17.56.3,1a43.61,43.61,0,0,1,1.6,7.47h.18c.16-1.23.4-2.54.71-3.92s.74-3,1.27-4.68l2.16-7.05H706l4.59,29Z"/><path class="cls-7" d="M772.28,411.48l-7.39-19.36h7.54l2.05,7c.3,1,.52,1.89.67,2.59a15.56,15.56,0,0,1,.28,2h.13c.09-.66.22-1.34.38-2.07s.37-1.51.63-2.35l2.17-7.17h7.39l-7.36,19.36Z"/><path class="cls-7" d="M787.13,411.48V392.12h7.07v19.36Z"/><path class="cls-7" d="M796.2,409.83l2.22-5.42a15.46,15.46,0,0,0,2.67,1.53,5.79,5.79,0,0,0,2.19.48,2,2,0,0,0,1.12-.27.85.85,0,0,0,.41-.74c0-.54-.68-1-2-1.23l-1-.22a6.16,6.16,0,0,1-3.32-1.88,5,5,0,0,1-1.15-3.36,6.43,6.43,0,0,1,2.23-5.08,8.56,8.56,0,0,1,5.86-2,12.47,12.47,0,0,1,3.28.44,15.07,15.07,0,0,1,3.26,1.32l-2.12,5.07a8.5,8.5,0,0,0-2-1.13,5.48,5.48,0,0,0-2-.39,2.17,2.17,0,0,0-1.12.24.75.75,0,0,0-.4.68c0,.55,1,1,2.9,1.44l.71.16a5.57,5.57,0,0,1,3.15,1.84,5.09,5.09,0,0,1,1.15,3.36,6.65,6.65,0,0,1-2.32,5.25,8.82,8.82,0,0,1-6,2,13.91,13.91,0,0,1-3.81-.54A17.35,17.35,0,0,1,796.2,409.83Z"/><path class="cls-7" d="M814.51,411.48V392.12h7v6.44h4.25v-6.44h6.95v19.36h-6.95v-6.82h-4.25v6.82Z"/><path class="cls-1" d="M804.63,869.42v18.32h17.78v10.58H804.63v18.39H793.79V898.32H776V887.74h17.78V869.42Z"/><path class="cls-1" d="M803.26,631.19l7.48-6,4.49,7.59-9.05,3.6,9.05,3.49-4.49,7.67-7.48-6.16,1.5,9.84h-9l1.51-9.84-7.61,6.16-4.36-7.67,9.19-3.49-9.19-3.6,4.36-7.59,7.61,6-1.51-9.68h9Z"/><path class="cls-1" d="M695.91,878.14v10.54h-46.4V878.14Zm0,18.24v10.54h-46.4V896.38Z"/><path class="cls-1" d="M536.23,893.12a8.37,8.37,0,0,1,3.19-6.57,12.55,12.55,0,0,1,15.63,0,8.33,8.33,0,0,1,0,13.14,12.61,12.61,0,0,1-15.67,0A8.41,8.41,0,0,1,536.23,893.12Z"/><path class="cls-1" d="M393.46,892.29q0-13.68,6.53-21.52t17.87-7.84q11.43,0,17.9,7.78t6.47,21.58q0,13.79-6.47,21.61t-17.9,7.83q-11.31,0-17.85-7.91T393.46,892.29Zm19.83,0q0,6.12,1.11,9c.73,1.89,1.89,2.84,3.46,2.84s2.73-.93,3.45-2.81,1.08-4.87,1.08-9-.36-7.1-1.08-9-1.87-2.83-3.45-2.83-2.76.93-3.48,2.79S413.29,888.13,413.29,892.29Z"/><path class="cls-1" d="M786.48,772.4V756.21H813V772.4Z"/><path class="cls-1" d="M415.55,664.21V652.94H391.31V638.11l21.3-30.6H435v30.6h6.12v14.83H435v11.27ZM409,638.11h8.09v-7.67c0-1.5,0-2.74.1-3.72a25.14,25.14,0,0,1,.29-2.63,26.58,26.58,0,0,1-1.41,3c-.56,1-1.38,2.35-2.46,4Z"/><path class="cls-1" d="M522.56,640.83l5.38-33.78h35.13V622.2H540.72l-.58,3.41c1.27-.16,2.53-.28,3.8-.35s2.52-.12,3.76-.12q9.28,0,14.6,5t5.31,13.59q0,10-6.9,15.55t-19.29,5.56A49.4,49.4,0,0,1,530,663.52a44.64,44.64,0,0,1-10.44-3.87l2.52-15.8a83.07,83.07,0,0,0,10.74,3.79,31.35,31.35,0,0,0,7.81,1.13q4.14,0,6-1a3.51,3.51,0,0,0,1.86-3.29,4.45,4.45,0,0,0-2.79-4.07,17.93,17.93,0,0,0-8-1.43,49.14,49.14,0,0,0-6.23.45C529.14,639.67,526.17,640.16,522.56,640.83Z"/><path class="cls-1" d="M677.82,624.58a6.92,6.92,0,0,1,.74-.06l1.23,0q8.44,0,13.17,4.67t4.73,13q0,10.55-6.86,17.22t-17.62,6.68q-10.77,0-17.64-6.45a21.58,21.58,0,0,1-6.88-16.48,26.78,26.78,0,0,1,2.77-11.6q2.77-5.79,10.94-15.59l6.67-7.94h26.57Zm-4.69,24.17a4.33,4.33,0,0,0,3.41-1.51,6.66,6.66,0,0,0,0-7.93,4.73,4.73,0,0,0-6.89,0,6.73,6.73,0,0,0,0,8A4.36,4.36,0,0,0,673.13,648.75Z"/><path class="cls-1" d="M401.51,792.21l20.14-38.77H402V736.05h50.85l-28.39,56.16Z"/><path class="cls-1" d="M534,762.7a13.42,13.42,0,0,1-6.91-4.36,11.35,11.35,0,0,1-2.38-7.3q0-7,6.2-11.56t16-4.55q9.79,0,16,4.55T569,751a11.4,11.4,0,0,1-2.37,7.32,13.32,13.32,0,0,1-6.85,4.34,17.07,17.07,0,0,1,8.25,5.17,12.52,12.52,0,0,1,2.87,8.23,15.08,15.08,0,0,1-6.53,12.75q-6.52,4.8-17.53,4.8t-17.52-4.82a15.06,15.06,0,0,1-6.57-12.73,12.44,12.44,0,0,1,2.89-8.23A17.18,17.18,0,0,1,534,762.7Zm12.9,17a3.83,3.83,0,0,0,3.1-1.46,6.79,6.79,0,0,0,0-7.65,3.85,3.85,0,0,0-3.14-1.43,3.93,3.93,0,0,0-3.14,1.43,5.73,5.73,0,0,0-1.2,3.8,5.82,5.82,0,0,0,1.22,3.83A3.87,3.87,0,0,0,546.86,779.67Zm-.07-22.28a2.89,2.89,0,0,0,2.34-1.1,4.37,4.37,0,0,0,.91-2.85,4.44,4.44,0,0,0-.89-2.9,2.92,2.92,0,0,0-2.36-1.09,2.83,2.83,0,0,0-2.31,1.09,4.5,4.5,0,0,0-.87,2.9,4.41,4.41,0,0,0,.89,2.85A2.79,2.79,0,0,0,546.79,757.39Z"/><path class="cls-1" d="M668.33,776.54l-.77,0-1.28,0q-8.32,0-13.15-4.77t-4.82-13a24.71,24.71,0,0,1,1-6.94,22.23,22.23,0,0,1,2.91-6.15,22.59,22.59,0,0,1,8.71-7.75A26.55,26.55,0,0,1,673,735.33q10.77,0,17.62,6.37A21.3,21.3,0,0,1,697.46,758a26.55,26.55,0,0,1-2.77,11.57q-2.78,5.74-10.94,15.47L677.08,793H650.51Zm4.73-24a4.34,4.34,0,0,0-3.45,1.51,5.77,5.77,0,0,0-1.32,4,5.64,5.64,0,0,0,1.32,3.89,4.39,4.39,0,0,0,3.45,1.49,4.33,4.33,0,0,0,3.42-1.47,5.68,5.68,0,0,0,1.3-3.91,5.77,5.77,0,0,0-1.32-4A4.28,4.28,0,0,0,673.06,752.49Z"/><path class="cls-1" d="M670.19,500.08H671a6.55,6.55,0,0,0,3.93-1,3.42,3.42,0,0,0,1.34-2.93,3.34,3.34,0,0,0-.89-2.4,3,3,0,0,0-2.29-.93,2.61,2.61,0,0,0-2.24,1,4.81,4.81,0,0,0-.78,3H651.4q.17-9.3,5.8-14.1t16.4-4.8q9.6,0,15.43,4.4a13.7,13.7,0,0,1,5.83,11.48,11,11,0,0,1-8.09,11.43,12.71,12.71,0,0,1,7.61,4.51,13.9,13.9,0,0,1,2.61,8.73,16,16,0,0,1-6.35,13.29q-6.35,5-17.12,5-11.53,0-18.07-5.7t-6.52-15.72v-.16h19.48a7.69,7.69,0,0,0,1.2,4.32,3.62,3.62,0,0,0,3.1,1.45,4.29,4.29,0,0,0,3.23-1.26,5.18,5.18,0,0,0-.21-6.91,6.1,6.1,0,0,0-4.11-1.24l-.89,0-.54,0Z"/><path class="cls-1" d="M523,537.21l25.29-30.13a19.92,19.92,0,0,0,2.56-3.62,6.22,6.22,0,0,0,.7-2.73,3.6,3.6,0,0,0-.93-2.62,3.44,3.44,0,0,0-2.56-.94,3,3,0,0,0-2.83,1.58,10.72,10.72,0,0,0-.89,5h-18.9v-.66q0-10.87,6.12-17t17-6.14q10.35,0,16.64,5.69t6.29,14.95a17.82,17.82,0,0,1-2.22,8.83,30.41,30.41,0,0,1-7.38,8.22l-4.76,4h14.29v15.6Z"/><rect class="cls-7" x="539" y="231" width="45" height="45" rx="12"/><rect class="cls-7" x="636" y="231" width="45" height="45" rx="12"/><rect class="cls-7" x="227" y="272" width="45" height="24" rx="12"/><rect class="cls-8" x="344.5" y="159.5" width="531" height="819" rx="37.65"/><rect class="cls-7" x="642" y="209" width="33" height="10" rx="5"/><rect class="cls-7" x="545" y="209" width="33" height="10" rx="5"/><path class="cls-7" d="M821,501a20.81,20.81,0,0,0-5.69-4,14.8,14.8,0,0,0-6.12-1.31,10.78,10.78,0,0,0-8,3.08,11.13,11.13,0,0,0-3,8.19,11,11,0,0,0,2.9,8,10.37,10.37,0,0,0,7.79,3,15.52,15.52,0,0,0,6-1.26,30.37,30.37,0,0,0,6.65-4L820.77,534a36.84,36.84,0,0,1-6.66,2,33.93,33.93,0,0,1-14.65-.25,28,28,0,0,1-6.93-2.64,30.24,30.24,0,0,1-11.37-11A29.68,29.68,0,0,1,777.31,507a31.18,31.18,0,0,1,2.19-11.78,28.57,28.57,0,0,1,16.15-15.9,33.09,33.09,0,0,1,12-2.15,32.22,32.22,0,0,1,6.79.72A32.64,32.64,0,0,1,821,480Z"/><path class="cls-9" d="M563,302s47,32,91,0"/><rect class="cls-1" x="489.5" y="937.67" width="26" height="84" rx="8" transform="translate(1482.17 477.17) rotate(90)"/><polyline class="cls-2" points="717.27 979.17 717.5 1001.67 717.5 1156.5"/><polyline class="cls-2" points="502.27 979.17 502.5 1001.67 502.5 1156.5"/><rect class="cls-1" x="705.5" y="937.67" width="26" height="84" rx="8" transform="translate(1698.17 261.17) rotate(90)"/><rect class="cls-1" x="331" y="343" width="26" height="84" rx="8"/><rect class="cls-1" x="863" y="343" width="26" height="84" rx="8"/><rect class="cls-3" x="344.5" y="159.5" width="531" height="819" rx="37.65"/><path class="cls-4" d="M875.5,689.38V940.85a37.76,37.76,0,0,1-37.65,37.65H382.15a37.76,37.76,0,0,1-37.65-37.65V691.44C569.09,875.7,783.24,758.62,875.5,689.38Z"/><rect class="cls-5" x="368" y="455.5" width="106" height="106" rx="12"/><rect class="cls-6" x="368" y="375" width="106" height="52" rx="12"/><rect class="cls-6" x="494" y="375" width="106" height="52" rx="12"/><rect class="cls-6" x="618" y="375" width="106" height="52" rx="12"/><rect class="cls-6" x="746" y="375" width="106" height="52" rx="12"/><rect class="cls-5" x="368" y="583.5" width="106" height="106" rx="12"/><rect class="cls-5" x="368" y="711.5" width="106" height="106" rx="12"/><rect class="cls-5" x="368" y="839.5" width="106" height="106" rx="12"/><rect class="cls-5" x="494" y="455.5" width="106" height="106" rx="12"/><rect class="cls-5" x="494" y="583.5" width="106" height="106" rx="12"/><rect class="cls-5" x="494" y="711.5" width="106" height="106" rx="12"/><rect class="cls-5" x="494" y="839.5" width="106" height="106" rx="12"/><rect class="cls-5" x="620" y="455.5" width="106" height="106" rx="12"/><rect class="cls-5" x="620" y="583.5" width="106" height="106" rx="12"/><rect class="cls-5" x="620" y="711.5" width="106" height="106" rx="12"/><rect class="cls-5" x="620" y="839.5" width="106" height="106" rx="12"/><rect class="cls-6" x="746" y="455.5" width="106" height="106" rx="12"/><rect class="cls-5" x="746" y="583.5" width="106" height="106" rx="12"/><rect class="cls-5" x="746" y="711.5" width="106" height="106" rx="12"/><rect class="cls-5" x="746" y="839.5" width="106" height="106" rx="12"/><rect class="cls-1" x="368" y="188" width="484" height="159" rx="12"/><path class="cls-1" d="M410,497.25h-8.48v-17.2h28.85v56.16H410Z"/><path class="cls-7" d="M396.83,413.71l3.36-8.21a21.8,21.8,0,0,0,4,2.32,8.83,8.83,0,0,0,3.31.73,3.13,3.13,0,0,0,1.71-.41,1.3,1.3,0,0,0,.62-1.12c0-.81-1-1.43-3.11-1.86l-1.56-.34a9.24,9.24,0,0,1-5-2.84,7.59,7.59,0,0,1-1.74-5.09,9.75,9.75,0,0,1,3.38-7.69,13,13,0,0,1,8.88-3,19,19,0,0,1,5,.66,22.78,22.78,0,0,1,4.92,2l-3.2,7.67a12.88,12.88,0,0,0-3.06-1.71,8.11,8.11,0,0,0-3-.6,3.2,3.2,0,0,0-1.7.38,1.14,1.14,0,0,0-.6,1c0,.83,1.46,1.55,4.38,2.18l1.08.24a8.29,8.29,0,0,1,4.77,2.79A7.7,7.7,0,0,1,421,406a10.11,10.11,0,0,1-3.51,8,13.38,13.38,0,0,1-9.15,3.08,20.82,20.82,0,0,1-5.76-.82A25.85,25.85,0,0,1,396.83,413.71Z"/><path class="cls-7" d="M421.89,413.71l3.36-8.21a21.8,21.8,0,0,0,4,2.32,8.83,8.83,0,0,0,3.31.73,3.07,3.07,0,0,0,1.7-.41,1.28,1.28,0,0,0,.63-1.12c0-.81-1-1.43-3.11-1.86l-1.56-.34a9.24,9.24,0,0,1-5-2.84,7.59,7.59,0,0,1-1.74-5.09,9.75,9.75,0,0,1,3.38-7.69,13,13,0,0,1,8.88-3,18.88,18.88,0,0,1,5,.66,22.64,22.64,0,0,1,4.93,2l-3.2,7.67a13.07,13.07,0,0,0-3.06-1.71,8.11,8.11,0,0,0-3-.6,3.2,3.2,0,0,0-1.7.38,1.14,1.14,0,0,0-.61,1c0,.83,1.47,1.55,4.39,2.18l1.08.24a8.29,8.29,0,0,1,4.77,2.79,7.7,7.7,0,0,1,1.74,5.08,10.11,10.11,0,0,1-3.51,8,13.4,13.4,0,0,1-9.15,3.08,20.94,20.94,0,0,1-5.77-.82A26,26,0,0,1,421.89,413.71Z"/><path class="cls-7" d="M544.29,415,543,403.34l-.24-2.67c-.08-.88-.15-1.77-.2-2.67q-.18,1.26-.51,2.67c-.22.94-.49,1.95-.81,3L537.89,415h-6.26l-3.36-11.27c-.34-1.06-.61-2.07-.82-3s-.38-1.83-.5-2.67c-.07.91-.14,1.8-.21,2.68s-.15,1.77-.23,2.66L525.23,415H514.9l5-29.29h10.86l2.08,7.24q.09.35.3,1a44.94,44.94,0,0,1,1.62,7.54H535q.24-1.86.72-4c.32-1.4.74-3,1.28-4.72l2.18-7.12H550L554.61,415Z"/><path class="cls-7" d="M554.85,412.44l3.36-8.2a21.09,21.09,0,0,0,4,2.31,8.68,8.68,0,0,0,3.31.73,3,3,0,0,0,1.7-.41,1.25,1.25,0,0,0,.62-1.11c0-.81-1-1.43-3.1-1.86l-1.56-.34a9.25,9.25,0,0,1-5-2.84,7.55,7.55,0,0,1-1.74-5.08,9.73,9.73,0,0,1,3.38-7.68,13,13,0,0,1,8.86-3,18.88,18.88,0,0,1,5,.66,23.31,23.31,0,0,1,4.93,2l-3.2,7.66a13.45,13.45,0,0,0-3.06-1.71,8.3,8.3,0,0,0-3-.59,3.23,3.23,0,0,0-1.7.37,1.16,1.16,0,0,0-.6,1q0,1.24,4.38,2.18l1.08.24a8.38,8.38,0,0,1,4.77,2.78A7.71,7.71,0,0,1,579,404.7a10.11,10.11,0,0,1-3.51,7.95,13.39,13.39,0,0,1-9.14,3.08,21.2,21.2,0,0,1-5.76-.82A26,26,0,0,1,554.85,412.44Z"/><path class="cls-7" d="M660.78,415l-1.26-11.49c-.08-.88-.16-1.77-.24-2.64s-.15-1.76-.2-2.65c-.12.83-.29,1.72-.5,2.65s-.49,1.92-.81,3L654.45,415h-6.2l-3.33-11.15c-.33-1.06-.6-2.05-.81-3s-.38-1.82-.5-2.65c-.07.9-.14,1.78-.21,2.66s-.15,1.75-.23,2.63L641.91,415H631.69l4.95-29h10.75l2.06,7.17c.07.23.17.56.3,1a44.78,44.78,0,0,1,1.61,7.47h.17c.16-1.23.4-2.54.72-3.92s.74-3,1.26-4.68l2.16-7.05h10.74l4.6,29Z"/><path class="cls-7" d="M700.38,415l-1.27-11.49c-.08-.88-.15-1.77-.23-2.64s-.15-1.76-.2-2.65c-.12.83-.29,1.72-.51,2.65s-.48,1.92-.8,3L694,415h-6.2l-3.32-11.15c-.34-1.06-.61-2.05-.82-3s-.37-1.82-.49-2.65c-.07.9-.14,1.78-.21,2.66s-.15,1.75-.23,2.63L681.5,415H671.28l5-29H687l2.06,7.17c.07.23.17.56.3,1a43.61,43.61,0,0,1,1.6,7.47h.18c.16-1.23.4-2.54.71-3.92s.74-3,1.27-4.68l2.16-7.05H706l4.59,29Z"/><path class="cls-7" d="M772.28,411.48l-7.39-19.36h7.54l2.05,7c.3,1,.52,1.89.67,2.59a15.56,15.56,0,0,1,.28,2h.13c.09-.66.22-1.34.38-2.07s.37-1.51.63-2.35l2.17-7.17h7.39l-7.36,19.36Z"/><path class="cls-7" d="M787.13,411.48V392.12h7.07v19.36Z"/><path class="cls-7" d="M796.2,409.83l2.22-5.42a15.46,15.46,0,0,0,2.67,1.53,5.79,5.79,0,0,0,2.19.48,2,2,0,0,0,1.12-.27.85.85,0,0,0,.41-.74c0-.54-.68-1-2-1.23l-1-.22a6.16,6.16,0,0,1-3.32-1.88,5,5,0,0,1-1.15-3.36,6.43,6.43,0,0,1,2.23-5.08,8.56,8.56,0,0,1,5.86-2,12.47,12.47,0,0,1,3.28.44,15.07,15.07,0,0,1,3.26,1.32l-2.12,5.07a8.5,8.5,0,0,0-2-1.13,5.48,5.48,0,0,0-2-.39,2.17,2.17,0,0,0-1.12.24.75.75,0,0,0-.4.68c0,.55,1,1,2.9,1.44l.71.16a5.57,5.57,0,0,1,3.15,1.84,5.09,5.09,0,0,1,1.15,3.36,6.65,6.65,0,0,1-2.32,5.25,8.82,8.82,0,0,1-6,2,13.91,13.91,0,0,1-3.81-.54A17.35,17.35,0,0,1,796.2,409.83Z"/><path class="cls-7" d="M814.51,411.48V392.12h7v6.44h4.25v-6.44h6.95v19.36h-6.95v-6.82h-4.25v6.82Z"/><path class="cls-1" d="M804.63,869.42v18.32h17.78v10.58H804.63v18.39H793.79V898.32H776V887.74h17.78V869.42Z"/><path class="cls-1" d="M803.26,631.19l7.48-6,4.49,7.59-9.05,3.6,9.05,3.49-4.49,7.67-7.48-6.16,1.5,9.84h-9l1.51-9.84-7.61,6.16-4.36-7.67,9.19-3.49-9.19-3.6,4.36-7.59,7.61,6-1.51-9.68h9Z"/><path class="cls-1" d="M695.91,878.14v10.54h-46.4V878.14Zm0,18.24v10.54h-46.4V896.38Z"/><path class="cls-1" d="M536.23,893.12a8.37,8.37,0,0,1,3.19-6.57,12.55,12.55,0,0,1,15.63,0,8.33,8.33,0,0,1,0,13.14,12.61,12.61,0,0,1-15.67,0A8.41,8.41,0,0,1,536.23,893.12Z"/><path class="cls-1" d="M393.46,892.29q0-13.68,6.53-21.52t17.87-7.84q11.43,0,17.9,7.78t6.47,21.58q0,13.79-6.47,21.61t-17.9,7.83q-11.31,0-17.85-7.91T393.46,892.29Zm19.83,0q0,6.12,1.11,9c.73,1.89,1.89,2.84,3.46,2.84s2.73-.93,3.45-2.81,1.08-4.87,1.08-9-.36-7.1-1.08-9-1.87-2.83-3.45-2.83-2.76.93-3.48,2.79S413.29,888.13,413.29,892.29Z"/><path class="cls-1" d="M786.48,772.4V756.21H813V772.4Z"/><path class="cls-1" d="M415.55,664.21V652.94H391.31V638.11l21.3-30.6H435v30.6h6.12v14.83H435v11.27ZM409,638.11h8.09v-7.67c0-1.5,0-2.74.1-3.72a25.14,25.14,0,0,1,.29-2.63,26.58,26.58,0,0,1-1.41,3c-.56,1-1.38,2.35-2.46,4Z"/><path class="cls-1" d="M522.56,640.83l5.38-33.78h35.13V622.2H540.72l-.58,3.41c1.27-.16,2.53-.28,3.8-.35s2.52-.12,3.76-.12q9.28,0,14.6,5t5.31,13.59q0,10-6.9,15.55t-19.29,5.56A49.4,49.4,0,0,1,530,663.52a44.64,44.64,0,0,1-10.44-3.87l2.52-15.8a83.07,83.07,0,0,0,10.74,3.79,31.35,31.35,0,0,0,7.81,1.13q4.14,0,6-1a3.51,3.51,0,0,0,1.86-3.29,4.45,4.45,0,0,0-2.79-4.07,17.93,17.93,0,0,0-8-1.43,49.14,49.14,0,0,0-6.23.45C529.14,639.67,526.17,640.16,522.56,640.83Z"/><path class="cls-1" d="M677.82,624.58a6.92,6.92,0,0,1,.74-.06l1.23,0q8.44,0,13.17,4.67t4.73,13q0,10.55-6.86,17.22t-17.62,6.68q-10.77,0-17.64-6.45a21.58,21.58,0,0,1-6.88-16.48,26.78,26.78,0,0,1,2.77-11.6q2.77-5.79,10.94-15.59l6.67-7.94h26.57Zm-4.69,24.17a4.33,4.33,0,0,0,3.41-1.51,6.66,6.66,0,0,0,0-7.93,4.73,4.73,0,0,0-6.89,0,6.73,6.73,0,0,0,0,8A4.36,4.36,0,0,0,673.13,648.75Z"/><path class="cls-1" d="M401.51,792.21l20.14-38.77H402V736.05h50.85l-28.39,56.16Z"/><path class="cls-1" d="M534,762.7a13.42,13.42,0,0,1-6.91-4.36,11.35,11.35,0,0,1-2.38-7.3q0-7,6.2-11.56t16-4.55q9.79,0,16,4.55T569,751a11.4,11.4,0,0,1-2.37,7.32,13.32,13.32,0,0,1-6.85,4.34,17.07,17.07,0,0,1,8.25,5.17,12.52,12.52,0,0,1,2.87,8.23,15.08,15.08,0,0,1-6.53,12.75q-6.52,4.8-17.53,4.8t-17.52-4.82a15.06,15.06,0,0,1-6.57-12.73,12.44,12.44,0,0,1,2.89-8.23A17.18,17.18,0,0,1,534,762.7Zm12.9,17a3.83,3.83,0,0,0,3.1-1.46,6.79,6.79,0,0,0,0-7.65,3.85,3.85,0,0,0-3.14-1.43,3.93,3.93,0,0,0-3.14,1.43,5.73,5.73,0,0,0-1.2,3.8,5.82,5.82,0,0,0,1.22,3.83A3.87,3.87,0,0,0,546.86,779.67Zm-.07-22.28a2.89,2.89,0,0,0,2.34-1.1,4.37,4.37,0,0,0,.91-2.85,4.44,4.44,0,0,0-.89-2.9,2.92,2.92,0,0,0-2.36-1.09,2.83,2.83,0,0,0-2.31,1.09,4.5,4.5,0,0,0-.87,2.9,4.41,4.41,0,0,0,.89,2.85A2.79,2.79,0,0,0,546.79,757.39Z"/><path class="cls-1" d="M668.33,776.54l-.77,0-1.28,0q-8.32,0-13.15-4.77t-4.82-13a24.71,24.71,0,0,1,1-6.94,22.23,22.23,0,0,1,2.91-6.15,22.59,22.59,0,0,1,8.71-7.75A26.55,26.55,0,0,1,673,735.33q10.77,0,17.62,6.37A21.3,21.3,0,0,1,697.46,758a26.55,26.55,0,0,1-2.77,11.57q-2.78,5.74-10.94,15.47L677.08,793H650.51Zm4.73-24a4.34,4.34,0,0,0-3.45,1.51,5.77,5.77,0,0,0-1.32,4,5.64,5.64,0,0,0,1.32,3.89,4.39,4.39,0,0,0,3.45,1.49,4.33,4.33,0,0,0,3.42-1.47,5.68,5.68,0,0,0,1.3-3.91,5.77,5.77,0,0,0-1.32-4A4.28,4.28,0,0,0,673.06,752.49Z"/><path class="cls-1" d="M670.19,500.08H671a6.55,6.55,0,0,0,3.93-1,3.42,3.42,0,0,0,1.34-2.93,3.34,3.34,0,0,0-.89-2.4,3,3,0,0,0-2.29-.93,2.61,2.61,0,0,0-2.24,1,4.81,4.81,0,0,0-.78,3H651.4q.17-9.3,5.8-14.1t16.4-4.8q9.6,0,15.43,4.4a13.7,13.7,0,0,1,5.83,11.48,11,11,0,0,1-8.09,11.43,12.71,12.71,0,0,1,7.61,4.51,13.9,13.9,0,0,1,2.61,8.73,16,16,0,0,1-6.35,13.29q-6.35,5-17.12,5-11.53,0-18.07-5.7t-6.52-15.72v-.16h19.48a7.69,7.69,0,0,0,1.2,4.32,3.62,3.62,0,0,0,3.1,1.45,4.29,4.29,0,0,0,3.23-1.26,5.18,5.18,0,0,0-.21-6.91,6.1,6.1,0,0,0-4.11-1.24l-.89,0-.54,0Z"/><path class="cls-1" d="M523,537.21l25.29-30.13a19.92,19.92,0,0,0,2.56-3.62,6.22,6.22,0,0,0,.7-2.73,3.6,3.6,0,0,0-.93-2.62,3.44,3.44,0,0,0-2.56-.94,3,3,0,0,0-2.83,1.58,10.72,10.72,0,0,0-.89,5h-18.9v-.66q0-10.87,6.12-17t17-6.14q10.35,0,16.64,5.69t6.29,14.95a17.82,17.82,0,0,1-2.22,8.83,30.41,30.41,0,0,1-7.38,8.22l-4.76,4h14.29v15.6Z"/><rect class="cls-7" x="539" y="243" width="45" height="33" rx="12"/><rect class="cls-7" x="636" y="231" width="45" height="45" rx="12"/><rect class="cls-7" x="227" y="272" width="45" height="24" rx="12"/><rect class="cls-8" x="344.5" y="159.5" width="531" height="819" rx="37.65"/><rect class="cls-7" x="642" y="195" width="33" height="10" rx="5"/><rect class="cls-7" x="547" y="220" width="33" height="10" rx="5"/><path class="cls-7" d="M821,501a20.81,20.81,0,0,0-5.69-4,14.8,14.8,0,0,0-6.12-1.31,10.78,10.78,0,0,0-8,3.08,11.13,11.13,0,0,0-3,8.19,11,11,0,0,0,2.9,8,10.37,10.37,0,0,0,7.79,3,15.52,15.52,0,0,0,6-1.26,30.37,30.37,0,0,0,6.65-4L820.77,534a36.84,36.84,0,0,1-6.66,2,33.93,33.93,0,0,1-14.65-.25,28,28,0,0,1-6.93-2.64,30.24,30.24,0,0,1-11.37-11A29.68,29.68,0,0,1,777.31,507a31.18,31.18,0,0,1,2.19-11.78,28.57,28.57,0,0,1,16.15-15.9,33.09,33.09,0,0,1,12-2.15,32.22,32.22,0,0,1,6.79.72A32.64,32.64,0,0,1,821,480Z"/><path class="cls-10" d="M328.5,386.5l-11.79.32S30.5,600.5,812.5,569.5"/><path class="cls-10" d="M889.5,385.5l8.5.5s228.5,69.5-162.5,165.5c0,0-164-17-125-196"/><line class="cls-9" x1="580" y1="308" x2="645.3" y2="308"/></svg>