<svg id="Camada_1" data-name="Camada 1" xmlns="http://www.w3.org/2000/svg" viewBox="0 0 28 28"><defs><style>.cls-1{fill:#c54a69;}.cls-2{fill:#fff;}</style></defs><rect class="cls-1" width="28" height="28"/><path class="cls-2" d="M9,12.55A3.68,3.68,0,0,1,10.44,14,4.29,4.29,0,0,1,11,16.1a4.14,4.14,0,0,1-.63,2.29A4,4,0,0,1,8.55,19.9a6.22,6.22,0,0,1-2.68.53,8.23,8.23,0,0,1-2.45-.37,5.24,5.24,0,0,1-1.92-1l1-2.33A6,6,0,0,0,5.9,17.89a2.29,2.29,0,0,0,1.49-.4,1.56,1.56,0,0,0,.48-1.26A1.6,1.6,0,0,0,7.36,15a2.11,2.11,0,0,0-1.42-.43,3.56,3.56,0,0,0-1.08.17,4.47,4.47,0,0,0-1.07.45H2V7.67H10.3v2.49H5.19v2.2A4.24,4.24,0,0,1,6.94,12,4.19,4.19,0,0,1,9,12.55Z"/><path class="cls-2" d="M12.22,17h3.31v3.26H12.22Z"/><path class="cls-2" d="M18.11,18.79A8,8,0,0,1,16.87,14a7.84,7.84,0,0,1,1.25-4.76,4.16,4.16,0,0,1,3.57-1.66,4.19,4.19,0,0,1,3.57,1.66A7.84,7.84,0,0,1,26.5,14a8,8,0,0,1-1.23,4.82,4.19,4.19,0,0,1-3.58,1.66A4.17,4.17,0,0,1,18.11,18.79ZM22.92,17A8.9,8.9,0,0,0,23.3,14a8.64,8.64,0,0,0-.38-3,1.29,1.29,0,0,0-2.47,0,8.7,8.7,0,0,0-.37,3A9,9,0,0,0,20.45,17a1.29,1.29,0,0,0,2.47,0Z"/></svg>