<svg xmlns="http://www.w3.org/2000/svg" viewBox="0 0 595.28 442.11"><defs><style>.cls-1{fill:#5a546c;}</style></defs><path class="cls-1" d="M134.81,378.18V299.89h28.8V376c0,19.81,9.17,29,25.37,29,16.56,0,24.84-9.54,24.84-29.87V299.89h29v77c0,34.73-20.7,50.58-54.35,50.58C156.23,427.5,134.81,412.92,134.81,378.18Z"/><path class="cls-1" d="M328.12,425.69V369.18c0-13.49-3.78-20.33-14.94-20.33-11.51,0-18,9.9-18,25.73v51.11H266.93V351.55c0-9.9-.36-16.92-.53-22.33h27c.36,3.44,1.25,14.41,1.45,19.8,4.85-15.29,16.91-21.59,30.77-21.59,24.29,0,31.13,16.37,31.13,34.38v63.88Z"/><path class="cls-1" d="M428.75,425.69H380.89V299.89h43.54c29.16,0,45.89,10.63,45.89,31.87,0,14.21-7.56,23.57-22.67,27.16,19.25,2.53,29.87,14,29.87,30.79C477.52,415.07,457,425.69,428.75,425.69Zm-7-105.27h-12.6v29.33h12.79c13.68,0,19.61-4.51,19.61-14.75C441.53,324.37,435.23,320.42,421.73,320.42Zm3.42,50.74h-16v33.66h16.92c13.33,0,22.32-4.31,22.32-17.28C448.37,374.76,437.94,371.16,425.15,371.16Z"/><path class="cls-1" d="M67.41,6.06V241.5H529.28V6.06ZM520.28,30.19l-72.7,52.5h0a384.8,384.8,0,0,1-72.41,41.06,143.78,143.78,0,0,1-39.32,10.69,253.3,253.3,0,0,1-31.21,1.92V15.06H520.28ZM292.06,15.06v121.3a253.06,253.06,0,0,1-31.21-1.92h0a143.75,143.75,0,0,1-39.33-10.69,385.11,385.11,0,0,1-72.41-41.06h0l-72.7-52.5V15.06ZM76.41,45.72,141.74,92.9h0a398,398,0,0,0,74.79,42.41,156.28,156.28,0,0,0,42.75,11.62,262.76,262.76,0,0,0,32.78,2V232.5H76.41ZM304.64,232.5V148.94a262.72,262.72,0,0,0,32.77-2,156.35,156.35,0,0,0,42.76-11.62,397.48,397.48,0,0,0,74.77-42.41h0l65.33-47.18V232.5Z"/></svg>